<svg width="27" height="27" viewBox="0 0 27 27" fill="none" xmlns="http://www.w3.org/2000/svg">
    <path d="M23.625 4.5H3.375C3.07663 4.5 2.79048 4.61853 2.5795 4.82951C2.36853 5.04048 2.25 5.32663 2.25 5.625V21.375C2.25 21.9717 2.48705 22.544 2.90901 22.966C3.33097 23.3879 3.90326 23.625 4.5 23.625H22.5C23.0967 23.625 23.669 23.3879 24.091 22.966C24.5129 22.544 24.75 21.9717 24.75 21.375V5.625C24.75 5.32663 24.6315 5.04048 24.4205 4.82951C24.2095 4.61853 23.9234 4.5 23.625 4.5ZM13.5 14.625C9.77738 14.625 6.75 11.5976 6.75 7.875H9C9 10.3567 11.0183 12.375 13.5 12.375C15.9818 12.375 18 10.3567 18 7.875H20.25C20.25 11.5976 17.2226 14.625 13.5 14.625Z" fill="#D71921"/>
</svg>