<svg
        width="161"
        height="161"
        viewBox="0 0 161 161"
        fill="none"
        xmlns="http://www.w3.org/2000/svg"
>
    <g clip-path="url(#clip0_48_1725)">
        <path
                d="M146.719 88.2705C146.719 128.438 114.154 161 73.9874 161C64.1337 161 54.7407 159.041 46.173 155.49C22.7561 145.79 5.50784 124.209 1.94199 98.2667C1.48874 94.9993 1.25781 91.6619 1.25781 88.2705C1.25781 48.1003 33.8197 15.5385 73.9874 15.5385C114.154 15.5385 146.719 48.1003 146.719 88.2705Z"
                fill="#FFC02E"
        />
        <path
                d="M73.9875 15.5385C70.1415 15.5385 66.3669 15.8394 62.6831 16.4143C97.483 21.8447 124.112 51.945 124.112 88.2705C124.112 124.591 97.4855 154.69 62.688 160.123C66.3706 160.698 70.1428 161 73.9862 161C114.154 161 146.72 128.438 146.72 88.2705C146.72 48.1003 114.154 15.5385 73.9875 15.5385Z"
                fill="#FFA73B"
        />
        <path
                d="M155.799 82.894L114.268 110.395C111.309 112.356 107.725 113.133 104.222 112.573C100.71 112.014 97.1169 112.781 94.1505 114.745L88.5923 118.428L57.4663 72.5465L65.1029 39.556C65.6961 36.9875 65.9897 34.3847 65.9897 31.7917C65.9897 25.0837 64.0281 18.463 60.2657 12.7795C59.3407 11.3817 58.8985 9.80082 58.8985 8.23961C58.8985 5.57167 60.1932 2.9541 62.586 1.36955C65.8104 -0.766525 70.0837 -0.369773 72.8598 2.32273L77.8075 7.11446C83.4652 12.6039 87.8295 19.2872 90.5699 26.6793L93.2526 33.9019L120.879 15.6489C125.291 12.7279 131.26 14.0054 134.077 18.5244C136.794 22.8777 135.399 28.6299 131.118 31.4637C131.067 31.4981 131.063 31.5534 131.08 31.5951C131.105 31.6406 131.156 31.6713 131.214 31.6467C132.306 31.2266 133.449 31.0227 134.581 31.0227C136.389 31.0227 138.181 31.5435 139.714 32.5348C140.771 33.2178 141.707 34.1255 142.445 35.2408C143.871 37.3953 144.296 39.922 143.829 42.2706C143.097 45.9703 140.408 47.8767 139.88 48.2354C139.79 48.298 139.766 48.4221 139.828 48.5154C139.828 48.5179 139.832 48.5216 139.835 48.5216C139.894 48.6051 140.014 48.6284 140.1 48.5744C140.853 48.3914 141.619 48.3041 142.386 48.3041C144.257 48.3041 146.118 48.836 147.7 49.8445C148.77 50.5287 149.715 51.4327 150.447 52.5407C153.319 56.8767 152.133 62.7211 147.792 65.5942C147.685 65.6666 147.578 65.7391 147.471 65.8079C147.41 65.857 147.391 65.9356 147.423 65.9909C147.429 66.0044 147.444 66.0192 147.458 66.0253C147.506 66.0634 147.582 66.0671 147.644 66.0192C150.341 65.1004 153.275 65.518 155.636 67.0473C156.723 67.745 157.687 68.6846 158.45 69.8368C161.323 74.1765 160.135 80.0209 155.799 82.894Z"
                fill="#FDD7BD"
        />
        <path
                d="M88.9889 127.136L71.468 138.739L46.1729 155.49C22.756 145.788 5.50774 124.211 1.94189 98.2665L31.2966 78.8269L49.1664 66.992C51.2238 65.6285 53.9999 66.1948 55.3633 68.2559L90.2529 120.935C91.6163 122.997 91.0501 125.768 88.9889 127.136Z"
                fill="#D71921"
        />
        <path
                d="M88.9892 127.136L71.4683 138.739L31.2969 78.8269L49.1667 66.992C51.2241 65.6285 54.0001 66.1948 55.3636 68.2559L90.2532 120.934C91.6166 122.997 91.0503 125.768 88.9892 127.136Z"
                fill="#B7171E"
        />
        <path
                d="M139.714 32.5337L125.894 39.9295C123.934 40.976 121.503 40.4294 120.185 38.6446L131.08 31.5952C131.105 31.6407 131.156 31.6714 131.214 31.6468C132.306 31.2267 133.448 31.0228 134.581 31.0228C136.39 31.0228 138.181 31.5436 139.714 32.5337Z"
                fill="#FAC5AA"
        />
        <path
                d="M147.699 49.8447L134.18 57.0734C132.22 58.1236 129.789 57.5782 128.47 55.7935L139.365 48.7428L139.836 48.5217C139.894 48.6053 140.015 48.6286 140.101 48.5746C140.854 48.3915 141.62 48.3043 142.387 48.3043C144.258 48.3043 146.118 48.8362 147.699 49.8447Z"
                fill="#FAC5AA"
        />
        <path
                d="M155.637 67.0474L143.73 73.4175C141.772 74.4628 139.342 73.9175 138.019 72.1327L147.458 66.0254C147.507 66.0635 147.583 66.0672 147.644 66.0181C150.34 65.1005 153.275 65.5181 155.637 67.0474Z"
                fill="#FAC5AA"
        />
    </g>
    <defs>
        <clipPath id="clip0_48_1725">
            <rect width="161" height="161" fill="white" />
        </clipPath>
    </defs>
</svg>