<svg
        width="48"
        height="48"
        viewBox="0 0 48 48"
        fill="none"
        xmlns="http://www.w3.org/2000/svg"
>
    <path
            d="M39.3047 34.6852H8.69531C8.22766 34.6852 7.79077 34.4541 7.52747 34.0677C3.48889 28.1454 3.17908 16.7529 3.15564 15.0618C3.15417 14.9955 3.15344 14.9285 3.15344 14.8618C3.15344 14.0822 3.78479 13.4497 4.56445 13.4482H4.56738C5.34558 13.4482 5.97803 14.0778 5.98096 14.8563C5.98096 14.8658 5.98132 14.9493 5.98462 15.0973C6.10913 19.1194 9.42004 22.3527 13.4718 22.3527C17.6023 22.3527 20.9626 18.9923 20.9626 14.8618C20.9626 14.0811 21.5958 13.4482 22.3762 13.4482H25.6234C26.4042 13.4482 27.037 14.0811 27.037 14.8618C27.037 18.9923 30.3977 22.3527 34.5282 22.3527C38.5836 22.3527 41.8967 19.1135 42.0157 15.0863C42.0183 14.9449 42.019 14.8658 42.019 14.8567C42.022 14.0778 42.6541 13.4482 43.4326 13.4482H43.4352C44.2148 13.4497 44.8462 14.0822 44.8462 14.8618C44.8462 14.9288 44.8455 14.9955 44.8444 15.0621C44.8206 16.7529 44.5107 28.1458 40.4725 34.0681C40.2092 34.4541 39.772 34.6852 39.3047 34.6852Z"
            fill="#FFF780"
    />
    <path
            d="M43.4352 13.4482C43.4344 13.4482 43.4337 13.4482 43.4326 13.4482C42.6544 13.4482 42.022 14.0778 42.019 14.8563C42.019 14.8658 42.0187 14.9449 42.0157 15.0863C41.8967 19.1132 38.5836 22.3527 34.5282 22.3527C30.3977 22.3527 27.0374 18.9923 27.0374 14.8618C27.0374 14.0811 26.4042 13.4482 25.6238 13.4482H24.0004V34.6848H39.3047C39.7723 34.6848 40.2092 34.4537 40.4725 34.0677C44.5111 28.1454 44.8209 16.7526 44.8444 15.0618C44.8458 14.9955 44.8466 14.9285 44.8466 14.8618C44.8462 14.0822 44.2148 13.4497 43.4352 13.4482Z"
            fill="#FFC02E"
    />
    <path
            d="M24 8.625C21.4816 8.625 19.4326 10.674 19.4326 13.1924C19.4326 15.7108 21.4816 17.7594 24 17.7594C26.5184 17.7594 28.5674 15.7108 28.5674 13.1924C28.5674 10.674 26.5184 8.625 24 8.625Z"
            fill="#FFC02E"
    />
    <path
            d="M24.0004 8.625V17.7598C26.5188 17.7594 28.5674 15.7108 28.5674 13.1924C28.5674 10.674 26.5184 8.62537 24.0004 8.625Z"
            fill="#FFA73B"
    />
    <path
            d="M4.56738 12.1497C2.04895 12.1497 0 14.1986 0 16.717C0 19.2355 2.04895 21.2844 4.56738 21.2844C7.08582 21.2844 9.1344 19.2355 9.1344 16.717C9.1344 14.1986 7.08582 12.1497 4.56738 12.1497Z"
            fill="#FFC02E"
    />
    <path
            d="M43.4326 12.1497C40.9142 12.1497 38.8656 14.1986 38.8656 16.717C38.8656 19.2351 40.9142 21.2841 43.4326 21.2841C45.951 21.2841 48 19.2351 48 16.717C48 14.1986 45.951 12.1497 43.4326 12.1497Z"
            fill="#FFA73B"
    />
    <path
            d="M39.3047 39.3226H8.69531C7.91455 39.3226 7.28174 38.6898 7.28174 37.9091V33.6936H40.7183V37.9091C40.7183 38.6898 40.0854 39.3226 39.3047 39.3226Z"
            fill="#FFC02E"
    />
    <path
            d="M24.0004 39.3226H39.3047C40.0854 39.3226 40.7183 38.6898 40.7183 37.9091V33.6936H24.0004V39.3226Z"
            fill="#FFA73B"
    />
</svg>