<svg
        width="375"
        height="44"
        viewBox="0 0 375 44"
        fill="none"
        xmlns="http://www.w3.org/2000/svg"
>
    <rect width="375" height="44" fill="white" />
    <path
            d="M24.8642 28H26.7538V17.4312H24.8715L22.1103 19.3647V21.1812L24.7396 19.3354H24.8642V28ZM29.4142 20.522V20.5513H31.1867V20.522C31.1867 19.4453 31.9337 18.7202 33.0397 18.7202C34.0797 18.7202 34.8414 19.394 34.8414 20.3242C34.8414 21.0713 34.4826 21.6206 33.0397 23.0854L29.5167 26.689V28H36.8556V26.396H32.1095V26.2715L34.3214 24.0522C36.1159 22.2798 36.6945 21.3423 36.6945 20.207C36.6945 18.4419 35.1857 17.1675 33.0983 17.1675C30.9303 17.1675 29.4142 18.5444 29.4142 20.522ZM40.0873 26.8794C40.7831 26.8794 41.2592 26.3813 41.2592 25.7222C41.2592 25.0557 40.7831 24.5649 40.0873 24.5649C39.3988 24.5649 38.9154 25.0557 38.9154 25.7222C38.9154 26.3813 39.3988 26.8794 40.0873 26.8794ZM40.0873 21.3862C40.7831 21.3862 41.2592 20.8955 41.2592 20.2363C41.2592 19.5698 40.7831 19.0791 40.0873 19.0791C39.3988 19.0791 38.9154 19.5698 38.9154 20.2363C38.9154 20.8955 39.3988 21.3862 40.0873 21.3862ZM43.3776 20.522V20.5513H45.15V20.522C45.15 19.4453 45.8971 18.7202 47.003 18.7202C48.0431 18.7202 48.8048 19.394 48.8048 20.3242C48.8048 21.0713 48.4459 21.6206 47.003 23.0854L43.4801 26.689V28H50.819V26.396H46.0729V26.2715L48.2848 24.0522C50.0792 22.2798 50.6578 21.3423 50.6578 20.207C50.6578 18.4419 49.149 17.1675 47.0616 17.1675C44.8937 17.1675 43.3776 18.5444 43.3776 20.522ZM52.5858 20.522V20.5513H54.3583V20.522C54.3583 19.4453 55.1053 18.7202 56.2113 18.7202C57.2513 18.7202 58.013 19.394 58.013 20.3242C58.013 21.0713 57.6542 21.6206 56.2113 23.0854L52.6883 26.689V28H60.0272V26.396H55.2811V26.2715L57.493 24.0522C59.2875 22.2798 59.8661 21.3423 59.8661 20.207C59.8661 18.4419 58.3573 17.1675 56.2699 17.1675C54.1019 17.1675 52.5858 18.5444 52.5858 20.522Z"
            fill="black"
    />
    <path
            opacity="0.35"
            fill-rule="evenodd"
            clip-rule="evenodd"
            d="M338.5 17.5H357.5C358.881 17.5 360 18.6193 360 20V26.5C360 27.8807 358.881 29 357.5 29H338.5C337.119 29 336 27.8807 336 26.5V20C336 18.6193 337.119 17.5 338.5 17.5ZM338.5 18.5C337.672 18.5 337 19.1716 337 20V26.5C337 27.3284 337.672 28 338.5 28H357.5C358.328 28 359 27.3284 359 26.5V20C359 19.1716 358.328 18.5 357.5 18.5H338.5Z"
            fill="black"
    />
    <path
            opacity="0.4"
            fill-rule="evenodd"
            clip-rule="evenodd"
            d="M361 20.7998C361.89 21.255 362.5 22.1813 362.5 23.2499C362.5 24.3186 361.89 25.2449 361 25.7001V20.7998Z"
            fill="black"
    />
    <path
            fill-rule="evenodd"
            clip-rule="evenodd"
            d="M339 19.5H357C357.552 19.5 358 19.9477 358 20.5V26C358 26.5523 357.552 27 357 27H339C338.448 27 338 26.5523 338 26V20.5C338 19.9477 338.448 19.5 339 19.5Z"
            fill="black"
    />
    <path
            fill-rule="evenodd"
            clip-rule="evenodd"
            d="M329.983 20.5229C328.072 18.8906 325.657 18 323.133 18C320.601 18 318.18 18.8959 316.266 20.5371L316.104 20.6765C315.972 20.7892 315.965 20.9895 316.087 21.1118L317.214 22.2356C317.324 22.3447 317.498 22.3521 317.617 22.2527L317.756 22.1354C319.263 20.8694 321.155 20.1804 323.133 20.1804C325.104 20.1804 326.989 20.8647 328.494 22.1228L328.634 22.2395C328.752 22.3385 328.926 22.3308 329.036 22.2219L330.163 21.098C330.285 20.9756 330.278 20.7749 330.146 20.6623L329.983 20.5229ZM323.133 21.4698C324.724 21.4698 326.251 21.9975 327.495 22.9749L327.671 23.113C327.811 23.2231 327.824 23.4306 327.697 23.5564L326.567 24.6841C326.462 24.7884 326.297 24.8003 326.178 24.7122L326.04 24.6098C325.2 23.9852 324.186 23.6501 323.133 23.6501C322.073 23.6501 321.053 23.9893 320.21 24.6211L320.072 24.7245C319.954 24.8133 319.787 24.8016 319.683 24.697L318.552 23.5698C318.426 23.4442 318.438 23.2373 318.578 23.1269L318.753 22.9887C320 22.0027 321.534 21.4698 323.133 21.4698ZM323.133 24.9396C323.772 24.9396 324.394 25.1076 324.941 25.4281L325.163 25.5579C325.331 25.6563 325.361 25.8867 325.223 26.0242L323.329 27.913C323.212 28.029 323.024 28.029 322.907 27.913L321.026 26.0363C320.888 25.8994 320.917 25.6702 321.084 25.5711L321.303 25.4406C321.856 25.1121 322.485 24.9396 323.133 24.9396Z"
            fill="black"
    />
    <path
            opacity="0.25"
            fill-rule="evenodd"
            clip-rule="evenodd"
            d="M309.5 18H310.5C311.052 18 311.5 18.4477 311.5 19V27C311.5 27.5523 311.052 28 310.5 28H309.5C308.948 28 308.5 27.5523 308.5 27V19C308.5 18.4477 308.948 18 309.5 18Z"
            fill="black"
    />
    <path
            fill-rule="evenodd"
            clip-rule="evenodd"
            d="M306 20H305C304.448 20 304 20.4477 304 21V27C304 27.5523 304.448 28 305 28H306C306.552 28 307 27.5523 307 27V21C307 20.4477 306.552 20 306 20ZM300.5 22H301.5C302.052 22 302.5 22.4477 302.5 23V27C302.5 27.5523 302.052 28 301.5 28H300.5C299.948 28 299.5 27.5523 299.5 27V23C299.5 22.4477 299.948 22 300.5 22ZM296 23.5H297C297.552 23.5 298 23.9477 298 24.5V27C298 27.5523 297.552 28 297 28H296C295.448 28 295 27.5523 295 27V24.5C295 23.9477 295.448 23.5 296 23.5Z"
            fill="black"
    />
    <path
            fill-rule="evenodd"
            clip-rule="evenodd"
            d="M70.678 28.7902L75.2402 18.25L64.7 22.8122H70.678V28.7902Z"
            fill="black"
    />
</svg>